<svg xmlns="http://www.w3.org/2000/svg" version="1.1" xmlns:xlink="http://www.w3.org/1999/xlink" xmlns:svgjs="http://svgjs.dev/svgjs" width="1280" height="1920" preserveAspectRatio="none" viewBox="0 0 1280 1920"><g mask="url(&quot;#SvgjsMask1115&quot;)" fill="none"><rect width="1280" height="1920" x="0" y="0" fill="rgba(255, 187, 0, 1)"></rect><path d="M0,579.134C110.796,562.395,223.053,554.284,318.637,495.808C415.565,436.51,473.868,338.452,542.025,247.535C629.184,131.271,781.852,33.834,773.724,-111.245C765.68,-254.833,602.078,-331.558,503.705,-436.462C409.707,-536.7,343.405,-682.744,209.373,-713.059C75.996,-743.226,-43.32,-632.614,-173.104,-589.539C-297.271,-548.328,-434.683,-546.832,-537.023,-465.333C-650.377,-375.063,-747.163,-253.696,-773.711,-111.243C-800.669,33.407,-751.847,181.973,-681.771,311.355C-614.665,435.254,-518.316,550.928,-387.165,602.44C-264.338,650.683,-130.48,598.847,0,579.134" fill="#c49000"></path><path d="M1280 2853.024C1451.617 2848.568 1554.33 2664.374 1697.412 2569.506 1837.846 2476.3940000000002 2064.7 2461.8869999999997 2113.266 2300.54 2163.317 2134.261 1941.4389999999999 2000.288 1920.642 1827.89 1899.0259999999998 1648.696 2087.948 1455.721 1992.8490000000002 1302.313 1901.434 1154.8490000000002 1674.722 1188.574 1504.266 1156.219 1350.625 1127.056 1195.589 1077.458 1045.85 1122.559 896.5799999999999 1167.519 764.984 1270.2930000000001 683.759 1403.355 608.142 1527.23 647.114 1682.686 617.238 1824.709 584.575 1979.981 454.35799999999995 2124.227 500.15700000000004 2276.143 546.299 2429.197 719.905 2496.48 848.422 2591.549 986.443 2693.648 1108.378 2857.48 1280 2853.024" fill="#ffcb3b"></path></g><defs><mask id="SvgjsMask1115"><rect width="1280" height="1920" fill="#ffffff"></rect></mask></defs></svg>